<?xml version="1.0" encoding="utf-8"?>
<svg viewBox="0 0 50 50" width="50" height="50" xmlns="http://www.w3.org/2000/svg">
  <path d="M 0 0 L 2 0 L 2 2 L 0 2 L 0 0 Z M 2 0 L 4 0 L 4 2 L 2 2 L 2 0 Z M 4 0 L 6 0 L 6 2 L 4 2 L 4 0 Z M 6 0 L 8 0 L 8 2 L 6 2 L 6 0 Z M 8 0 L 10 0 L 10 2 L 8 2 L 8 0 Z M 10 0 L 12 0 L 12 2 L 10 2 L 10 0 Z M 12 0 L 14 0 L 14 2 L 12 2 L 12 0 Z M 16 0 L 18 0 L 18 2 L 16 2 L 16 0 Z M 18 0 L 20 0 L 20 2 L 18 2 L 18 0 Z M 20 0 L 22 0 L 22 2 L 20 2 L 20 0 Z M 22 0 L 24 0 L 24 2 L 22 2 L 22 0 Z M 28 0 L 30 0 L 30 2 L 28 2 L 28 0 Z M 36 0 L 38 0 L 38 2 L 36 2 L 36 0 Z M 38 0 L 40 0 L 40 2 L 38 2 L 38 0 Z M 40 0 L 42 0 L 42 2 L 40 2 L 40 0 Z M 42 0 L 44 0 L 44 2 L 42 2 L 42 0 Z M 44 0 L 46 0 L 46 2 L 44 2 L 44 0 Z M 46 0 L 48 0 L 48 2 L 46 2 L 46 0 Z M 48 0 L 50 0 L 50 2 L 48 2 L 48 0 Z M 0 2 L 2 2 L 2 4 L 0 4 L 0 2 Z M 12 2 L 14 2 L 14 4 L 12 4 L 12 2 Z M 16 2 L 18 2 L 18 4 L 16 4 L 16 2 Z M 22 2 L 24 2 L 24 4 L 22 4 L 22 2 Z M 32 2 L 34 2 L 34 4 L 32 4 L 32 2 Z M 36 2 L 38 2 L 38 4 L 36 4 L 36 2 Z M 48 2 L 50 2 L 50 4 L 48 4 L 48 2 Z M 0 4 L 2 4 L 2 6 L 0 6 L 0 4 Z M 4 4 L 6 4 L 6 6 L 4 6 L 4 4 Z M 6 4 L 8 4 L 8 6 L 6 6 L 6 4 Z M 8 4 L 10 4 L 10 6 L 8 6 L 8 4 Z M 12 4 L 14 4 L 14 6 L 12 6 L 12 4 Z M 18 4 L 20 4 L 20 6 L 18 6 L 18 4 Z M 26 4 L 28 4 L 28 6 L 26 6 L 26 4 Z M 32 4 L 34 4 L 34 6 L 32 6 L 32 4 Z M 36 4 L 38 4 L 38 6 L 36 6 L 36 4 Z M 40 4 L 42 4 L 42 6 L 40 6 L 40 4 Z M 42 4 L 44 4 L 44 6 L 42 6 L 42 4 Z M 44 4 L 46 4 L 46 6 L 44 6 L 44 4 Z M 48 4 L 50 4 L 50 6 L 48 6 L 48 4 Z M 0 6 L 2 6 L 2 8 L 0 8 L 0 6 Z M 4 6 L 6 6 L 6 8 L 4 8 L 4 6 Z M 6 6 L 8 6 L 8 8 L 6 8 L 6 6 Z M 8 6 L 10 6 L 10 8 L 8 8 L 8 6 Z M 12 6 L 14 6 L 14 8 L 12 8 L 12 6 Z M 22 6 L 24 6 L 24 8 L 22 8 L 22 6 Z M 24 6 L 26 6 L 26 8 L 24 8 L 24 6 Z M 26 6 L 28 6 L 28 8 L 26 8 L 26 6 Z M 28 6 L 30 6 L 30 8 L 28 8 L 28 6 Z M 32 6 L 34 6 L 34 8 L 32 8 L 32 6 Z M 36 6 L 38 6 L 38 8 L 36 8 L 36 6 Z M 40 6 L 42 6 L 42 8 L 40 8 L 40 6 Z M 42 6 L 44 6 L 44 8 L 42 8 L 42 6 Z M 44 6 L 46 6 L 46 8 L 44 8 L 44 6 Z M 48 6 L 50 6 L 50 8 L 48 8 L 48 6 Z M 0 8 L 2 8 L 2 10 L 0 10 L 0 8 Z M 4 8 L 6 8 L 6 10 L 4 10 L 4 8 Z M 6 8 L 8 8 L 8 10 L 6 10 L 6 8 Z M 8 8 L 10 8 L 10 10 L 8 10 L 8 8 Z M 12 8 L 14 8 L 14 10 L 12 10 L 12 8 Z M 16 8 L 18 8 L 18 10 L 16 10 L 16 8 Z M 22 8 L 24 8 L 24 10 L 22 10 L 22 8 Z M 24 8 L 26 8 L 26 10 L 24 10 L 24 8 Z M 36 8 L 38 8 L 38 10 L 36 10 L 36 8 Z M 40 8 L 42 8 L 42 10 L 40 10 L 40 8 Z M 42 8 L 44 8 L 44 10 L 42 10 L 42 8 Z M 44 8 L 46 8 L 46 10 L 44 10 L 44 8 Z M 48 8 L 50 8 L 50 10 L 48 10 L 48 8 Z M 0 10 L 2 10 L 2 12 L 0 12 L 0 10 Z M 12 10 L 14 10 L 14 12 L 12 12 L 12 10 Z M 16 10 L 18 10 L 18 12 L 16 12 L 16 10 Z M 18 10 L 20 10 L 20 12 L 18 12 L 18 10 Z M 20 10 L 22 10 L 22 12 L 20 12 L 20 10 Z M 24 10 L 26 10 L 26 12 L 24 12 L 24 10 Z M 36 10 L 38 10 L 38 12 L 36 12 L 36 10 Z M 48 10 L 50 10 L 50 12 L 48 12 L 48 10 Z M 0 12 L 2 12 L 2 14 L 0 14 L 0 12 Z M 2 12 L 4 12 L 4 14 L 2 14 L 2 12 Z M 4 12 L 6 12 L 6 14 L 4 14 L 4 12 Z M 6 12 L 8 12 L 8 14 L 6 14 L 6 12 Z M 8 12 L 10 12 L 10 14 L 8 14 L 8 12 Z M 10 12 L 12 12 L 12 14 L 10 14 L 10 12 Z M 12 12 L 14 12 L 14 14 L 12 14 L 12 12 Z M 16 12 L 18 12 L 18 14 L 16 14 L 16 12 Z M 20 12 L 22 12 L 22 14 L 20 14 L 20 12 Z M 24 12 L 26 12 L 26 14 L 24 14 L 24 12 Z M 28 12 L 30 12 L 30 14 L 28 14 L 28 12 Z M 32 12 L 34 12 L 34 14 L 32 14 L 32 12 Z M 36 12 L 38 12 L 38 14 L 36 14 L 36 12 Z M 38 12 L 40 12 L 40 14 L 38 14 L 38 12 Z M 40 12 L 42 12 L 42 14 L 40 14 L 40 12 Z M 42 12 L 44 12 L 44 14 L 42 14 L 42 12 Z M 44 12 L 46 12 L 46 14 L 44 14 L 44 12 Z M 46 12 L 48 12 L 48 14 L 46 14 L 46 12 Z M 48 12 L 50 12 L 50 14 L 48 14 L 48 12 Z M 16 14 L 18 14 L 18 16 L 16 16 L 16 14 Z M 18 14 L 20 14 L 20 16 L 18 16 L 18 14 Z M 32 14 L 34 14 L 34 16 L 32 16 L 32 14 Z M 0 16 L 2 16 L 2 18 L 0 18 L 0 16 Z M 2 16 L 4 16 L 4 18 L 2 18 L 2 16 Z M 4 16 L 6 16 L 6 18 L 4 18 L 4 16 Z M 10 16 L 12 16 L 12 18 L 10 18 L 10 16 Z M 12 16 L 14 16 L 14 18 L 12 18 L 12 16 Z M 16 16 L 18 16 L 18 18 L 16 18 L 16 16 Z M 18 16 L 20 16 L 20 18 L 18 18 L 18 16 Z M 22 16 L 24 16 L 24 18 L 22 18 L 22 16 Z M 24 16 L 26 16 L 26 18 L 24 18 L 24 16 Z M 28 16 L 30 16 L 30 18 L 28 18 L 28 16 Z M 30 16 L 32 16 L 32 18 L 30 18 L 30 16 Z M 34 16 L 36 16 L 36 18 L 34 18 L 34 16 Z M 36 16 L 38 16 L 38 18 L 36 18 L 36 16 Z M 38 16 L 40 16 L 40 18 L 38 18 L 38 16 Z M 40 16 L 42 16 L 42 18 L 40 18 L 40 16 Z M 46 16 L 48 16 L 48 18 L 46 18 L 46 16 Z M 48 16 L 50 16 L 50 18 L 48 18 L 48 16 Z M 0 18 L 2 18 L 2 20 L 0 20 L 0 18 Z M 2 18 L 4 18 L 4 20 L 2 20 L 2 18 Z M 4 18 L 6 18 L 6 20 L 4 20 L 4 18 Z M 8 18 L 10 18 L 10 20 L 8 20 L 8 18 Z M 16 18 L 18 18 L 18 20 L 16 20 L 16 18 Z M 24 18 L 26 18 L 26 20 L 24 20 L 24 18 Z M 26 18 L 28 18 L 28 20 L 26 20 L 26 18 Z M 30 18 L 32 18 L 32 20 L 30 20 L 30 18 Z M 32 18 L 34 18 L 34 20 L 32 20 L 32 18 Z M 34 18 L 36 18 L 36 20 L 34 20 L 34 18 Z M 36 18 L 38 18 L 38 20 L 36 20 L 36 18 Z M 38 18 L 40 18 L 40 20 L 38 20 L 38 18 Z M 42 18 L 44 18 L 44 20 L 42 20 L 42 18 Z M 46 18 L 48 18 L 48 20 L 46 20 L 46 18 Z M 48 18 L 50 18 L 50 20 L 48 20 L 48 18 Z M 0 20 L 2 20 L 2 22 L 0 22 L 0 20 Z M 2 20 L 4 20 L 4 22 L 2 22 L 2 20 Z M 4 20 L 6 20 L 6 22 L 4 22 L 4 20 Z M 6 20 L 8 20 L 8 22 L 6 22 L 6 20 Z M 12 20 L 14 20 L 14 22 L 12 22 L 12 20 Z M 18 20 L 20 20 L 20 22 L 18 22 L 18 20 Z M 20 20 L 22 20 L 22 22 L 20 22 L 20 20 Z M 24 20 L 26 20 L 26 22 L 24 22 L 24 20 Z M 30 20 L 32 20 L 32 22 L 30 22 L 30 20 Z M 32 20 L 34 20 L 34 22 L 32 22 L 32 20 Z M 34 20 L 36 20 L 36 22 L 34 22 L 34 20 Z M 36 20 L 38 20 L 38 22 L 36 22 L 36 20 Z M 40 20 L 42 20 L 42 22 L 40 22 L 40 20 Z M 48 20 L 50 20 L 50 22 L 48 22 L 48 20 Z M 2 22 L 4 22 L 4 24 L 2 24 L 2 22 Z M 4 22 L 6 22 L 6 24 L 4 24 L 4 22 Z M 6 22 L 8 22 L 8 24 L 6 24 L 6 22 Z M 10 22 L 12 22 L 12 24 L 10 24 L 10 22 Z M 20 22 L 22 22 L 22 24 L 20 24 L 20 22 Z M 22 22 L 24 22 L 24 24 L 22 24 L 22 22 Z M 24 22 L 26 22 L 26 24 L 24 24 L 24 22 Z M 30 22 L 32 22 L 32 24 L 30 24 L 30 22 Z M 38 22 L 40 22 L 40 24 L 38 24 L 38 22 Z M 40 22 L 42 22 L 42 24 L 40 24 L 40 22 Z M 46 22 L 48 22 L 48 24 L 46 24 L 46 22 Z M 48 22 L 50 22 L 50 24 L 48 24 L 48 22 Z M 0 24 L 2 24 L 2 26 L 0 26 L 0 24 Z M 4 24 L 6 24 L 6 26 L 4 26 L 4 24 Z M 6 24 L 8 24 L 8 26 L 6 26 L 6 24 Z M 8 24 L 10 24 L 10 26 L 8 26 L 8 24 Z M 10 24 L 12 24 L 12 26 L 10 26 L 10 24 Z M 12 24 L 14 24 L 14 26 L 12 26 L 12 24 Z M 16 24 L 18 24 L 18 26 L 16 26 L 16 24 Z M 18 24 L 20 24 L 20 26 L 18 26 L 18 24 Z M 20 24 L 22 24 L 22 26 L 20 26 L 20 24 Z M 30 24 L 32 24 L 32 26 L 30 26 L 30 24 Z M 36 24 L 38 24 L 38 26 L 36 26 L 36 24 Z M 38 24 L 40 24 L 40 26 L 38 26 L 38 24 Z M 42 24 L 44 24 L 44 26 L 42 26 L 42 24 Z M 2 26 L 4 26 L 4 28 L 2 28 L 2 26 Z M 4 26 L 6 26 L 6 28 L 4 28 L 4 26 Z M 6 26 L 8 26 L 8 28 L 6 28 L 6 26 Z M 14 26 L 16 26 L 16 28 L 14 28 L 14 26 Z M 20 26 L 22 26 L 22 28 L 20 28 L 20 26 Z M 30 26 L 32 26 L 32 28 L 30 28 L 30 26 Z M 32 26 L 34 26 L 34 28 L 32 28 L 32 26 Z M 36 26 L 38 26 L 38 28 L 36 28 L 36 26 Z M 38 26 L 40 26 L 40 28 L 38 28 L 38 26 Z M 42 26 L 44 26 L 44 28 L 42 28 L 42 26 Z M 44 26 L 46 26 L 46 28 L 44 28 L 44 26 Z M 48 26 L 50 26 L 50 28 L 48 28 L 48 26 Z M 0 28 L 2 28 L 2 30 L 0 30 L 0 28 Z M 2 28 L 4 28 L 4 30 L 2 30 L 2 28 Z M 12 28 L 14 28 L 14 30 L 12 30 L 12 28 Z M 22 28 L 24 28 L 24 30 L 22 30 L 22 28 Z M 28 28 L 30 28 L 30 30 L 28 30 L 28 28 Z M 30 28 L 32 28 L 32 30 L 30 30 L 30 28 Z M 34 28 L 36 28 L 36 30 L 34 30 L 34 28 Z M 40 28 L 42 28 L 42 30 L 40 30 L 40 28 Z M 42 28 L 44 28 L 44 30 L 42 30 L 42 28 Z M 48 28 L 50 28 L 50 30 L 48 30 L 48 28 Z M 8 30 L 10 30 L 10 32 L 8 32 L 8 30 Z M 10 30 L 12 30 L 12 32 L 10 32 L 10 30 Z M 16 30 L 18 30 L 18 32 L 16 32 L 16 30 Z M 18 30 L 20 30 L 20 32 L 18 32 L 18 30 Z M 28 30 L 30 30 L 30 32 L 28 32 L 28 30 Z M 30 30 L 32 30 L 32 32 L 30 32 L 30 30 Z M 32 30 L 34 30 L 34 32 L 32 32 L 32 30 Z M 38 30 L 40 30 L 40 32 L 38 32 L 38 30 Z M 42 30 L 44 30 L 44 32 L 42 32 L 42 30 Z M 46 30 L 48 30 L 48 32 L 46 32 L 46 30 Z M 0 32 L 2 32 L 2 34 L 0 34 L 0 32 Z M 2 32 L 4 32 L 4 34 L 2 34 L 2 32 Z M 4 32 L 6 32 L 6 34 L 4 34 L 4 32 Z M 6 32 L 8 32 L 8 34 L 6 34 L 6 32 Z M 10 32 L 12 32 L 12 34 L 10 34 L 10 32 Z M 12 32 L 14 32 L 14 34 L 12 34 L 12 32 Z M 16 32 L 18 32 L 18 34 L 16 34 L 16 32 Z M 22 32 L 24 32 L 24 34 L 22 34 L 22 32 Z M 24 32 L 26 32 L 26 34 L 24 34 L 24 32 Z M 32 32 L 34 32 L 34 34 L 32 34 L 32 32 Z M 34 32 L 36 32 L 36 34 L 34 34 L 34 32 Z M 36 32 L 38 32 L 38 34 L 36 34 L 36 32 Z M 38 32 L 40 32 L 40 34 L 38 34 L 38 32 Z M 40 32 L 42 32 L 42 34 L 40 34 L 40 32 Z M 46 32 L 48 32 L 48 34 L 46 34 L 46 32 Z M 16 34 L 18 34 L 18 36 L 16 36 L 16 34 Z M 18 34 L 20 34 L 20 36 L 18 36 L 18 34 Z M 20 34 L 22 34 L 22 36 L 20 36 L 20 34 Z M 24 34 L 26 34 L 26 36 L 24 36 L 24 34 Z M 26 34 L 28 34 L 28 36 L 26 36 L 26 34 Z M 32 34 L 34 34 L 34 36 L 32 36 L 32 34 Z M 40 34 L 42 34 L 42 36 L 40 36 L 40 34 Z M 42 34 L 44 34 L 44 36 L 42 36 L 42 34 Z M 48 34 L 50 34 L 50 36 L 48 36 L 48 34 Z M 0 36 L 2 36 L 2 38 L 0 38 L 0 36 Z M 2 36 L 4 36 L 4 38 L 2 38 L 2 36 Z M 4 36 L 6 36 L 6 38 L 4 38 L 4 36 Z M 6 36 L 8 36 L 8 38 L 6 38 L 6 36 Z M 8 36 L 10 36 L 10 38 L 8 38 L 8 36 Z M 10 36 L 12 36 L 12 38 L 10 38 L 10 36 Z M 12 36 L 14 36 L 14 38 L 12 38 L 12 36 Z M 24 36 L 26 36 L 26 38 L 24 38 L 24 36 Z M 26 36 L 28 36 L 28 38 L 26 38 L 26 36 Z M 32 36 L 34 36 L 34 38 L 32 38 L 32 36 Z M 36 36 L 38 36 L 38 38 L 36 38 L 36 36 Z M 40 36 L 42 36 L 42 38 L 40 38 L 40 36 Z M 42 36 L 44 36 L 44 38 L 42 38 L 42 36 Z M 44 36 L 46 36 L 46 38 L 44 38 L 44 36 Z M 48 36 L 50 36 L 50 38 L 48 38 L 48 36 Z M 0 38 L 2 38 L 2 40 L 0 40 L 0 38 Z M 12 38 L 14 38 L 14 40 L 12 40 L 12 38 Z M 16 38 L 18 38 L 18 40 L 16 40 L 16 38 Z M 22 38 L 24 38 L 24 40 L 22 40 L 22 38 Z M 24 38 L 26 38 L 26 40 L 24 40 L 24 38 Z M 30 38 L 32 38 L 32 40 L 30 40 L 30 38 Z M 32 38 L 34 38 L 34 40 L 32 40 L 32 38 Z M 40 38 L 42 38 L 42 40 L 40 40 L 40 38 Z M 42 38 L 44 38 L 44 40 L 42 40 L 42 38 Z M 0 40 L 2 40 L 2 42 L 0 42 L 0 40 Z M 4 40 L 6 40 L 6 42 L 4 42 L 4 40 Z M 6 40 L 8 40 L 8 42 L 6 42 L 6 40 Z M 8 40 L 10 40 L 10 42 L 8 42 L 8 40 Z M 12 40 L 14 40 L 14 42 L 12 42 L 12 40 Z M 24 40 L 26 40 L 26 42 L 24 42 L 24 40 Z M 30 40 L 32 40 L 32 42 L 30 42 L 30 40 Z M 32 40 L 34 40 L 34 42 L 32 42 L 32 40 Z M 34 40 L 36 40 L 36 42 L 34 42 L 34 40 Z M 36 40 L 38 40 L 38 42 L 36 42 L 36 40 Z M 38 40 L 40 40 L 40 42 L 38 42 L 38 40 Z M 40 40 L 42 40 L 42 42 L 40 42 L 40 40 Z M 46 40 L 48 40 L 48 42 L 46 42 L 46 40 Z M 0 42 L 2 42 L 2 44 L 0 44 L 0 42 Z M 4 42 L 6 42 L 6 44 L 4 44 L 4 42 Z M 6 42 L 8 42 L 8 44 L 6 44 L 6 42 Z M 8 42 L 10 42 L 10 44 L 8 44 L 8 42 Z M 12 42 L 14 42 L 14 44 L 12 44 L 12 42 Z M 18 42 L 20 42 L 20 44 L 18 44 L 18 42 Z M 28 42 L 30 42 L 30 44 L 28 44 L 28 42 Z M 34 42 L 36 42 L 36 44 L 34 44 L 34 42 Z M 38 42 L 40 42 L 40 44 L 38 44 L 38 42 Z M 40 42 L 42 42 L 42 44 L 40 44 L 40 42 Z M 46 42 L 48 42 L 48 44 L 46 44 L 46 42 Z M 0 44 L 2 44 L 2 46 L 0 46 L 0 44 Z M 4 44 L 6 44 L 6 46 L 4 46 L 4 44 Z M 6 44 L 8 44 L 8 46 L 6 46 L 6 44 Z M 8 44 L 10 44 L 10 46 L 8 46 L 8 44 Z M 12 44 L 14 44 L 14 46 L 12 46 L 12 44 Z M 16 44 L 18 44 L 18 46 L 16 46 L 16 44 Z M 18 44 L 20 44 L 20 46 L 18 46 L 18 44 Z M 20 44 L 22 44 L 22 46 L 20 46 L 20 44 Z M 22 44 L 24 44 L 24 46 L 22 46 L 22 44 Z M 24 44 L 26 44 L 26 46 L 24 46 L 24 44 Z M 26 44 L 28 44 L 28 46 L 26 46 L 26 44 Z M 30 44 L 32 44 L 32 46 L 30 46 L 30 44 Z M 32 44 L 34 44 L 34 46 L 32 46 L 32 44 Z M 40 44 L 42 44 L 42 46 L 40 46 L 40 44 Z M 42 44 L 44 44 L 44 46 L 42 46 L 42 44 Z M 46 44 L 48 44 L 48 46 L 46 46 L 46 44 Z M 48 44 L 50 44 L 50 46 L 48 46 L 48 44 Z M 0 46 L 2 46 L 2 48 L 0 48 L 0 46 Z M 12 46 L 14 46 L 14 48 L 12 48 L 12 46 Z M 16 46 L 18 46 L 18 48 L 16 48 L 16 46 Z M 18 46 L 20 46 L 20 48 L 18 48 L 18 46 Z M 22 46 L 24 46 L 24 48 L 22 48 L 22 46 Z M 28 46 L 30 46 L 30 48 L 28 48 L 28 46 Z M 30 46 L 32 46 L 32 48 L 30 48 L 30 46 Z M 32 46 L 34 46 L 34 48 L 32 48 L 32 46 Z M 38 46 L 40 46 L 40 48 L 38 48 L 38 46 Z M 42 46 L 44 46 L 44 48 L 42 48 L 42 46 Z M 0 48 L 2 48 L 2 50 L 0 50 L 0 48 Z M 2 48 L 4 48 L 4 50 L 2 50 L 2 48 Z M 4 48 L 6 48 L 6 50 L 4 50 L 4 48 Z M 6 48 L 8 48 L 8 50 L 6 50 L 6 48 Z M 8 48 L 10 48 L 10 50 L 8 50 L 8 48 Z M 10 48 L 12 48 L 12 50 L 10 50 L 10 48 Z M 12 48 L 14 48 L 14 50 L 12 50 L 12 48 Z M 16 48 L 18 48 L 18 50 L 16 50 L 16 48 Z M 18 48 L 20 48 L 20 50 L 18 50 L 18 48 Z M 22 48 L 24 48 L 24 50 L 22 50 L 22 48 Z M 24 48 L 26 48 L 26 50 L 24 50 L 24 48 Z M 32 48 L 34 48 L 34 50 L 32 50 L 32 48 Z M 38 48 L 40 48 L 40 50 L 38 50 L 38 48 Z M 42 48 L 44 48 L 44 50 L 42 50 L 42 48 Z M 48 48 L 50 48 L 50 50 L 48 50 L 48 48 Z" stroke="transparent" fill="black" transform="matrix(0.9999999999999999, 0, 0, 0.9999999999999999, 0, 0)"/>
</svg>
