<?xml version="1.0" encoding="UTF-8" standalone="no"?>
<!DOCTYPE svg PUBLIC "-//W3C//DTD SVG 1.1//EN" "http://www.w3.org/Graphics/SVG/1.1/DTD/svg11.dtd">
<svg width="100%" height="100%" viewBox="0 0 730 1042" version="1.1" xmlns="http://www.w3.org/2000/svg" xmlns:xlink="http://www.w3.org/1999/xlink" xml:space="preserve" xmlns:serif="http://www.serif.com/" style="fill-rule:evenodd;clip-rule:evenodd;stroke-miterlimit:2;">
    <g transform="matrix(4.16667,0,0,4.16667,-880.181,-421.675)">
        <path d="M299.306,206.067L306.203,206.055C314.044,187.579 335.049,190.669 335.049,190.669L335.049,114.329L322.69,114.329C306.241,114.329 306.076,127.544 306.076,133.703L299.306,133.703" style="fill:white;fill-rule:nonzero;"/>
    </g>
    <g transform="matrix(4.16667,0,0,4.16667,-880.181,-421.675)">
        <path d="M299.306,206.067L306.203,206.055C314.044,187.579 335.049,190.669 335.049,190.669L335.049,114.329L322.69,114.329C306.241,114.329 306.076,127.544 306.076,133.703L299.306,133.703" style="fill:none;stroke:rgb(35,31,32);stroke-width:1.54px;"/>
    </g>
    <g transform="matrix(4.16667,0,0,4.16667,-880.181,-421.675)">
        <path d="M299.372,206.067L292.474,206.055C284.636,187.579 263.631,190.669 263.631,190.669L263.631,114.329L275.989,114.329C292.438,114.329 292.602,127.544 292.602,133.703L299.372,133.703" style="fill:rgb(0,68,140);fill-rule:nonzero;"/>
    </g>
    <g transform="matrix(4.16667,0,0,4.16667,-880.181,-421.675)">
        <path d="M299.372,206.067L292.474,206.055C284.636,187.579 263.631,190.669 263.631,190.669L263.631,114.329L275.989,114.329C292.438,114.329 292.602,127.544 292.602,133.703L299.372,133.703" style="fill:none;stroke:rgb(35,31,32);stroke-width:1.54px;"/>
    </g>
    <g transform="matrix(4.16667,0,0,4.16667,-880.181,-421.675)">
        <path d="M299.393,223.957L324.573,223.957C335.338,223.957 353.944,216.367 353.944,190.577L335.073,190.577L335.073,194.042C335.073,194.042 334.94,206.103 324.442,206.103L299.393,206.103" style="fill:rgb(0,68,140);fill-rule:nonzero;"/>
    </g>
    <g transform="matrix(4.16667,0,0,4.16667,-880.181,-421.675)">
        <path d="M299.393,223.957L324.573,223.957C335.338,223.957 353.944,216.367 353.944,190.577L335.073,190.577L335.073,194.042C335.073,194.042 334.94,206.103 324.442,206.103L299.393,206.103" style="fill:none;stroke:rgb(35,31,32);stroke-width:1.54px;"/>
    </g>
    <g transform="matrix(4.16667,0,0,4.16667,-880.181,-421.675)">
        <path d="M299.393,223.957L273.478,223.957C262.713,223.957 244.678,216.367 244.678,190.577L263.548,190.577L263.548,194.042C263.548,194.042 263.112,206.103 273.613,206.103L299.393,206.103" style="fill:white;fill-rule:nonzero;"/>
    </g>
    <g transform="matrix(4.16667,0,0,4.16667,-880.181,-421.675)">
        <path d="M299.393,223.957L273.478,223.957C262.713,223.957 244.678,216.367 244.678,190.577L263.548,190.577L263.548,194.042C263.548,194.042 263.112,206.103 273.613,206.103L299.393,206.103" style="fill:none;stroke:rgb(35,31,32);stroke-width:1.54px;"/>
    </g>
    <g transform="matrix(4.16667,0,0,4.16667,-880.181,-421.675)">
        <path d="M299.542,133.703L299.542,223.957" style="fill:none;stroke:rgb(35,31,32);stroke-width:1.54px;"/>
    </g>
    <g transform="matrix(4.16667,0,0,4.16667,-880.181,-421.675)">
        <path d="M270.436,120.912L270.436,189.867" style="fill:none;stroke:white;stroke-width:1.54px;stroke-linecap:round;stroke-linejoin:round;"/>
    </g>
    <g transform="matrix(4.16667,0,0,4.16667,-880.181,-421.675)">
        <path d="M277.962,124.464L277.962,192.004" style="fill:none;stroke:white;stroke-width:1.54px;stroke-linecap:round;stroke-linejoin:round;"/>
    </g>
    <g transform="matrix(4.16667,0,0,4.16667,-880.181,-421.675)">
        <path d="M285.388,129.396L285.388,195.788" style="fill:none;stroke:white;stroke-width:1.54px;stroke-linecap:round;stroke-linejoin:round;"/>
    </g>
    <g transform="matrix(4.16667,0,0,4.16667,-880.181,-421.675)">
        <path d="M292.632,134.171L292.632,205.85" style="fill:none;stroke:white;stroke-width:1.54px;stroke-linecap:round;stroke-linejoin:round;"/>
    </g>
    <g transform="matrix(4.16667,0,0,4.16667,-880.181,-421.675)">
        <path d="M328.275,120.912L328.275,189.867" style="fill:none;stroke:rgb(35,31,32);stroke-width:1.54px;stroke-linecap:round;stroke-linejoin:round;"/>
    </g>
    <g transform="matrix(4.16667,0,0,4.16667,-880.181,-421.675)">
        <path d="M320.745,124.464L320.745,192.004" style="fill:none;stroke:rgb(35,31,32);stroke-width:1.54px;stroke-linecap:round;stroke-linejoin:round;"/>
    </g>
    <g transform="matrix(4.16667,0,0,4.16667,-880.181,-421.675)">
        <path d="M313.318,129.396L313.318,196.402" style="fill:none;stroke:rgb(35,31,32);stroke-width:1.54px;stroke-linecap:round;stroke-linejoin:round;"/>
    </g>
    <g transform="matrix(4.16667,0,0,4.16667,-880.181,-421.675)">
        <path d="M306.074,133.703L306.074,205.751" style="fill:none;stroke:rgb(35,31,32);stroke-width:1.54px;stroke-linecap:round;stroke-linejoin:round;"/>
    </g>
    <g transform="matrix(4.16667,0,0,4.16667,-880.181,-421.675)">
        <path d="M299.404,206.067L292.509,206.055C284.668,187.579 263.662,190.669 263.662,190.669L263.662,114.329L276.023,114.329C292.47,114.329 292.634,127.544 292.634,133.703L299.404,133.703" style="fill:none;stroke:rgb(35,31,32);stroke-width:1.54px;"/>
    </g>
    <g transform="matrix(4.16667,0,0,4.16667,-880.181,-421.675)">
        <path d="M286.507,250.554C286.507,252.105 286.407,252.255 285.657,252.338L284.906,252.422C284.773,252.522 284.773,252.905 284.906,253.006C286.074,252.972 286.941,252.955 287.741,252.955C288.492,252.955 289.326,252.972 290.41,253.006C290.527,252.905 290.527,252.522 290.41,252.422L289.743,252.338C288.992,252.238 288.892,252.105 288.892,250.554L288.892,243.198C288.892,242.765 288.942,242.715 289.343,242.715L290.343,242.715C291.594,242.715 291.828,243.499 292.111,244.566C292.195,244.699 292.645,244.666 292.728,244.516C292.695,243.565 292.812,242.214 292.979,241.647C292.945,241.597 292.828,241.531 292.728,241.531C292.628,241.531 292.578,241.547 292.512,241.581C292.361,241.931 292.111,241.947 291.01,241.947L284.806,241.947C283.538,241.947 283.488,241.881 283.405,241.597C283.338,241.547 283.255,241.531 283.171,241.531C283.088,241.531 283.005,241.564 282.938,241.614C282.821,242.264 282.738,243.298 282.388,244.449C282.488,244.666 282.805,244.699 283.005,244.599C283.505,243.382 283.855,242.715 285.073,242.715L286.107,242.715C286.507,242.715 286.507,242.798 286.507,243.198L286.507,250.554Z" style="fill:rgb(0,68,140);fill-rule:nonzero;"/>
    </g>
    <g transform="matrix(4.16667,0,0,4.16667,-880.181,-421.675)">
        <path d="M301.468,247.668C302.169,247.668 302.169,247.685 302.169,248.152L302.169,250.554C302.169,252.105 302.085,252.272 301.318,252.372L300.951,252.422C300.818,252.522 300.818,252.905 300.951,253.006C301.752,252.972 302.569,252.955 303.403,252.955C304.17,252.955 304.987,252.972 305.821,253.006C305.955,252.905 305.955,252.522 305.821,252.422L305.421,252.355C304.654,252.222 304.554,252.105 304.554,250.554L304.554,244.349C304.554,242.798 304.654,242.648 305.421,242.531L305.755,242.481C305.888,242.381 305.888,241.998 305.755,241.897C304.987,241.931 304.22,241.947 303.403,241.947C302.602,241.947 301.785,241.931 300.868,241.897C300.734,241.998 300.734,242.381 300.868,242.481L301.318,242.548C302.085,242.665 302.169,242.798 302.169,244.349L302.169,246.284C302.169,246.768 302.169,246.784 301.468,246.784L297.999,246.784C297.315,246.784 297.298,246.768 297.298,246.284L297.298,244.349C297.298,242.798 297.398,242.631 298.116,242.531L298.466,242.481C298.599,242.381 298.599,241.998 298.466,241.897C297.732,241.931 296.898,241.947 296.148,241.947C295.347,241.947 294.48,241.931 293.662,241.897C293.529,241.998 293.529,242.381 293.662,242.481L294.063,242.531C294.83,242.631 294.913,242.798 294.913,244.349L294.913,250.554C294.913,252.105 294.83,252.272 294.063,252.372L293.662,252.422C293.529,252.522 293.529,252.905 293.662,253.006C294.513,252.972 295.347,252.955 296.148,252.955C296.898,252.955 297.732,252.972 298.683,253.006C298.816,252.905 298.816,252.522 298.683,252.422L298.149,252.355C297.398,252.255 297.298,252.105 297.298,250.554L297.298,248.152C297.298,247.685 297.315,247.668 297.999,247.668L301.468,247.668Z" style="fill:rgb(0,68,140);fill-rule:nonzero;"/>
    </g>
    <g transform="matrix(4.16667,0,0,4.16667,-880.181,-421.675)">
        <path d="M310.741,243.365C310.741,242.748 310.741,242.715 311.292,242.715L312.626,242.715C313.443,242.715 313.944,242.915 314.26,243.232C314.477,243.465 314.711,243.966 314.894,244.549C315.061,244.699 315.445,244.666 315.511,244.483C315.428,243.365 315.311,242.164 315.295,241.897C315.078,241.931 314.127,241.947 313.06,241.947L309.524,241.947C308.723,241.947 307.906,241.931 307.122,241.897C306.955,241.998 306.939,242.381 307.089,242.481L307.506,242.565C308.256,242.715 308.356,242.815 308.356,244.333L308.356,250.554C308.356,252.088 308.256,252.188 307.506,252.305L306.722,252.422C306.588,252.505 306.588,252.905 306.722,253.006C307.973,252.972 308.79,252.955 309.59,252.955L311.759,252.955C313.126,252.955 314.728,252.972 315.611,253.006C315.845,252.555 316.245,251.204 316.312,250.337C316.245,250.137 315.828,250.07 315.695,250.254C314.778,252.138 314.21,252.188 312.759,252.188C311.542,252.188 311.225,252.055 311.008,251.755C310.808,251.471 310.741,250.937 310.741,250.17L310.741,248.185C310.741,247.685 310.758,247.668 311.208,247.668L312.359,247.668C313.226,247.668 313.427,247.802 313.593,248.602L313.677,249.019C313.793,249.169 314.21,249.153 314.294,249.003C314.26,248.469 314.244,247.868 314.244,247.235C314.244,246.601 314.26,246 314.294,245.467C314.21,245.317 313.793,245.317 313.677,245.45L313.593,245.867C313.427,246.668 313.226,246.784 312.359,246.784L311.208,246.784C310.758,246.784 310.741,246.751 310.741,246.284L310.741,243.365Z" style="fill:rgb(0,68,140);fill-rule:nonzero;"/>
    </g>
    <g transform="matrix(4.16667,0,0,4.16667,-880.181,-421.675)">
        <path d="M228.933,277.803C228.933,280.905 228.733,281.205 227.231,281.372L225.73,281.539C225.463,281.739 225.463,282.506 225.73,282.707C228.065,282.64 229.8,282.606 231.401,282.606C232.902,282.606 234.57,282.64 236.738,282.707C236.972,282.506 236.972,281.739 236.738,281.539L235.404,281.372C233.903,281.172 233.703,280.905 233.703,277.803L233.703,263.092C233.703,262.225 233.803,262.125 234.603,262.125L236.605,262.125C239.107,262.125 239.574,263.693 240.141,265.828C240.308,266.094 241.208,266.028 241.375,265.728C241.308,263.826 241.542,261.124 241.875,259.99C241.809,259.89 241.575,259.757 241.375,259.757C241.175,259.757 241.075,259.79 240.941,259.857C240.641,260.557 240.141,260.59 237.939,260.59L225.53,260.59C222.995,260.59 222.895,260.457 222.728,259.89C222.595,259.79 222.428,259.757 222.261,259.757C222.094,259.757 221.928,259.823 221.794,259.923C221.561,261.224 221.394,263.292 220.693,265.594C220.894,266.028 221.527,266.094 221.928,265.894C222.928,263.459 223.629,262.125 226.064,262.125L228.132,262.125C228.933,262.125 228.933,262.292 228.933,263.092L228.933,277.803Z" style="fill:rgb(0,68,140);fill-rule:nonzero;"/>
    </g>
    <g transform="matrix(4.16667,0,0,4.16667,-880.181,-421.675)">
        <path d="M245.745,277.803C245.745,280.872 245.545,281.105 244.044,281.372L243.143,281.539C242.876,281.706 242.876,282.506 243.143,282.707C244.878,282.64 246.345,282.606 248.013,282.606C249.614,282.606 251.149,282.64 252.917,282.707C253.15,282.506 253.15,281.706 252.917,281.539L252.016,281.372C250.515,281.105 250.315,280.872 250.315,277.803L250.315,273.7C250.315,273.033 250.382,272.966 251.549,272.966C252.383,272.966 252.917,273.233 253.317,274.134C254.084,275.902 254.852,277.536 255.919,279.304C257.387,281.706 259.321,282.807 262.39,282.807C263.424,282.807 264.492,282.74 265.026,282.506C265.192,282.306 265.192,281.806 264.892,281.639C264.392,281.606 263.525,281.406 262.657,280.705C261.056,279.337 259.687,276.836 257.487,272.366C257.32,271.999 257.32,271.799 257.653,271.632C259.187,270.865 261.189,269.597 261.189,266.628C261.189,264.493 260.189,262.825 258.254,261.691C256.986,260.924 254.551,260.49 251.716,260.49C248.547,260.49 245.945,260.624 243.443,260.791C243.043,260.957 243.043,261.791 243.377,261.958L244.277,262.092C245.678,262.292 245.745,262.659 245.745,265.994L245.745,277.803ZM250.315,263.726C250.315,262.125 250.382,262.025 251.749,262.025C254.351,262.025 256.118,263.96 256.118,266.962C256.118,268.93 255.485,269.997 254.918,270.564C254.284,271.198 253.584,271.498 252.383,271.498C250.415,271.498 250.315,271.398 250.315,270.231L250.315,263.726Z" style="fill:rgb(0,68,140);fill-rule:nonzero;"/>
    </g>
    <g transform="matrix(4.16667,0,0,4.16667,-880.181,-421.675)">
        <path d="M272.665,265.461C272.665,262.325 272.865,262.092 274.399,261.825L275.333,261.658C275.6,261.458 275.6,260.691 275.333,260.49C273.532,260.557 271.864,260.59 270.296,260.59C268.695,260.59 267.027,260.557 265.226,260.49C264.959,260.691 264.959,261.458 265.226,261.658L266.16,261.825C267.694,262.092 267.894,262.325 267.894,265.461L267.894,277.736C267.894,280.872 267.694,281.105 266.16,281.372L265.226,281.539C264.959,281.739 264.959,282.506 265.226,282.707C267.027,282.64 268.695,282.606 270.296,282.606C271.864,282.606 273.498,282.64 275.3,282.707C275.567,282.506 275.6,281.739 275.333,281.539L274.399,281.372C272.865,281.105 272.665,280.872 272.665,277.736L272.665,265.461Z" style="fill:rgb(0,68,140);fill-rule:nonzero;"/>
    </g>
    <g transform="matrix(4.16667,0,0,4.16667,-880.181,-421.675)">
        <path d="M280.102,273.733C280.102,277.369 280.836,279.838 282.571,281.272C284.372,282.74 286.64,283.14 289.175,283.14C291.877,283.14 294.312,282.306 295.78,280.738C297.615,278.704 297.915,275.835 297.915,272.699L297.915,268.963C297.915,266.261 298.048,263.726 298.415,262.859C298.716,262.158 299.349,261.958 300.217,261.758L300.817,261.625C301.084,261.358 301.017,260.691 300.817,260.49C299.55,260.557 298.315,260.59 297.081,260.59C295.713,260.59 294.412,260.557 292.611,260.49C292.411,260.691 292.344,261.358 292.611,261.625L293.512,261.791C294.412,261.958 295.146,262.158 295.447,262.859C295.814,263.726 295.947,266.261 295.947,268.963L295.947,272.999C295.947,277.569 294.646,281.306 290.376,281.306C285.306,281.306 284.872,277.002 284.872,273.1L284.872,265.394C284.872,262.292 285.072,262.025 286.573,261.758L287.374,261.625C287.641,261.424 287.641,260.691 287.374,260.49C285.773,260.557 284.138,260.59 282.504,260.59C280.903,260.59 279.235,260.557 277.634,260.49C277.267,260.691 277.3,261.424 277.567,261.625L278.401,261.791C279.902,262.092 280.102,262.292 280.102,265.394L280.102,273.733Z" style="fill:rgb(0,68,140);fill-rule:nonzero;"/>
    </g>
    <g transform="matrix(4.16667,0,0,4.16667,-880.181,-421.675)">
        <path d="M303.018,261.791C304.353,262.025 305.086,262.525 305.086,264.427C305.086,266.228 305.02,268.93 304.886,271.165C304.686,274.334 304.586,277.236 304.419,278.87C304.219,280.939 304.019,281.139 302.318,281.439L301.717,281.539C301.417,281.706 301.417,282.573 301.851,282.707C303.185,282.64 304.453,282.607 305.52,282.607C306.788,282.607 308.222,282.64 309.456,282.707C309.723,282.54 309.79,281.773 309.523,281.539L308.222,281.339C306.888,281.139 306.688,280.672 306.688,279.004C306.688,277.002 306.721,273.667 306.754,271.498C306.788,269.764 306.821,268.296 306.954,266.128L307.021,266.128C308.889,270.464 312.992,278.737 314.293,282.873C314.493,283.007 314.86,283.074 315.16,283.074C315.427,283.074 315.661,282.973 315.828,282.84C318.029,277.203 320.698,271.632 323.166,266.295L323.233,266.295L323.233,270.097L323.3,278.77C323.3,280.805 323.3,281.205 321.765,281.406L320.764,281.539C320.431,281.773 320.464,282.54 320.865,282.707C322.466,282.64 324.3,282.607 325.801,282.607C327.436,282.607 328.87,282.64 330.405,282.707C330.738,282.573 330.738,281.806 330.472,281.539L329.404,281.406C328.103,281.239 327.97,280.438 327.903,278.904C327.703,274.701 327.636,271.098 327.636,264.226C327.636,262.459 328.303,262.058 329.671,261.825L330.638,261.658C330.905,261.324 330.905,260.691 330.538,260.49C329.337,260.557 327.803,260.59 326.702,260.59C325.701,260.59 324.934,260.624 323.4,260.49C322.666,263.359 321.832,265.127 320.231,268.563L318.53,272.232C317.629,274.2 317.095,275.234 316.661,276.035C316.194,275.201 314.994,273.1 314.693,272.432L312.492,267.729C311.024,264.593 309.857,262.559 309.857,260.49C308.656,260.59 307.688,260.59 306.587,260.59C304.953,260.59 303.519,260.557 302.384,260.49C302.018,260.59 302.018,261.391 302.284,261.658L303.018,261.791Z" style="fill:rgb(0,68,140);fill-rule:nonzero;"/>
    </g>
    <g transform="matrix(4.16667,0,0,4.16667,-880.181,-421.675)">
        <path d="M335.242,277.803C335.242,280.905 335.042,281.139 333.541,281.406L332.607,281.572C332.24,281.739 332.307,282.506 332.674,282.707C334.475,282.64 336.076,282.607 337.677,282.607C339.278,282.607 340.913,282.64 342.781,282.707C343.148,282.506 343.148,281.739 342.781,281.572L341.713,281.406C340.212,281.172 340.012,280.905 340.012,277.803L340.012,263.726C340.012,262.392 340.079,262.025 341.313,262.025C344.315,262.025 345.583,264.694 345.583,267.162C345.583,269.63 345.016,271.599 342.247,272.466C342.014,272.666 342.08,273.2 342.347,273.366C342.714,273.4 343.014,273.4 343.415,273.4C345.183,273.4 350.687,272.599 350.687,267.129C350.687,263.893 348.652,262.125 346.617,261.358C345.216,260.824 343.348,260.49 340.513,260.49C337.61,260.49 335.009,260.624 332.807,260.791C332.44,261.024 332.44,261.758 332.74,261.925L333.774,262.058C335.175,262.225 335.242,262.625 335.242,265.994L335.242,277.803Z" style="fill:rgb(0,68,140);fill-rule:nonzero;"/>
    </g>
    <g transform="matrix(4.16667,0,0,4.16667,-880.181,-421.675)">
        <path d="M368.199,272.032C369.6,272.032 369.6,272.066 369.6,273L369.6,277.803C369.6,280.905 369.434,281.239 367.899,281.439L367.165,281.539C366.898,281.739 366.898,282.507 367.165,282.707C368.766,282.64 370.401,282.607 372.069,282.607C373.603,282.607 375.238,282.64 376.906,282.707C377.173,282.507 377.173,281.739 376.906,281.539L376.105,281.406C374.571,281.139 374.37,280.905 374.37,277.803L374.37,265.394C374.37,262.292 374.571,261.992 376.105,261.758L376.772,261.658C377.039,261.458 377.039,260.691 376.772,260.49C375.238,260.557 373.703,260.591 372.069,260.591C370.468,260.591 368.833,260.557 366.998,260.49C366.732,260.691 366.732,261.458 366.998,261.658L367.899,261.791C369.434,262.025 369.6,262.292 369.6,265.394L369.6,269.264C369.6,270.231 369.6,270.264 368.199,270.264L361.261,270.264C359.893,270.264 359.86,270.231 359.86,269.264L359.86,265.394C359.86,262.292 360.06,261.958 361.494,261.758L362.195,261.658C362.462,261.458 362.462,260.691 362.195,260.49C360.727,260.557 359.059,260.591 357.558,260.591C355.957,260.591 354.222,260.557 352.588,260.49C352.321,260.691 352.321,261.458 352.588,261.658L353.389,261.758C354.923,261.958 355.09,262.292 355.09,265.394L355.09,277.803C355.09,280.905 354.923,281.239 353.389,281.439L352.588,281.539C352.321,281.739 352.321,282.507 352.588,282.707C354.289,282.64 355.957,282.607 357.558,282.607C359.059,282.607 360.727,282.64 362.629,282.707C362.895,282.507 362.895,281.739 362.629,281.539L361.561,281.406C360.06,281.206 359.86,280.905 359.86,277.803L359.86,273C359.86,272.066 359.893,272.032 361.261,272.032L368.199,272.032Z" style="fill:rgb(0,68,140);fill-rule:nonzero;"/>
    </g>
    <g transform="matrix(4.16667,0,0,4.16667,-880.181,-421.675)">
        <path d="M261.881,299.179C261.881,296.937 260.272,295.755 259.008,295.082L257.661,294.369C256.643,293.839 255.807,292.982 255.807,292.045C255.807,291.025 256.54,290.149 257.887,290.149C259.354,290.149 260.23,291.637 260.577,292.677C260.76,292.88 261.271,292.86 261.372,292.615C261.372,291.25 261.169,290.149 261.006,289.7C260.76,289.66 260.577,289.619 260.312,289.537C259.497,289.293 258.661,289.211 257.989,289.211C255.033,289.211 253.239,290.801 253.259,293.105C253.259,295.123 254.87,296.346 256.337,297.08C257.56,297.691 259.109,298.67 259.109,300.321C259.109,301.34 258.417,302.38 256.907,302.38C255.175,302.38 253.81,300.504 253.402,299.179C253.239,298.955 252.77,298.976 252.627,299.241C252.627,300.627 252.892,302.095 253.28,302.543C253.708,302.788 254.87,303.318 256.745,303.318C259.823,303.318 261.881,301.687 261.881,299.179Z" style="fill:rgb(0,68,140);fill-rule:nonzero;"/>
    </g>
    <g transform="matrix(4.16667,0,0,4.16667,-880.181,-421.675)">
        <path d="M264.375,300.59C264.375,302.141 264.275,302.258 263.524,302.391L263.057,302.474C262.874,302.558 262.907,302.941 263.091,303.042C263.991,303.008 264.792,302.991 265.592,302.991C266.393,302.991 267.21,303.008 268.144,303.042C268.328,302.941 268.328,302.558 268.144,302.474L267.61,302.391C266.86,302.274 266.76,302.141 266.76,300.59L266.76,293.551C266.76,292.884 266.793,292.701 267.41,292.701C268.911,292.701 269.545,294.035 269.545,295.269C269.545,296.503 269.262,297.487 267.877,297.921C267.761,298.021 267.794,298.288 267.927,298.371C268.111,298.388 268.261,298.388 268.461,298.388C269.345,298.388 272.097,297.988 272.097,295.253C272.097,293.635 271.08,292.751 270.062,292.367C269.362,292.1 268.428,291.933 267.01,291.933C265.559,291.933 264.258,292 263.157,292.084C262.974,292.2 262.974,292.567 263.124,292.651L263.641,292.717C264.341,292.801 264.375,293.001 264.375,294.685L264.375,300.59Z" style="fill:rgb(0,68,140);fill-rule:nonzero;"/>
    </g>
    <g transform="matrix(4.16667,0,0,4.16667,-880.181,-421.675)">
        <path d="M279.119,291.717C275.633,291.717 273.164,294.268 273.164,297.571C273.164,301.057 275.6,303.258 278.952,303.258C282.538,303.258 284.973,301.073 284.973,297.437C284.973,294.052 282.588,291.717 279.119,291.717ZM282.304,297.654C282.304,300.356 281.454,302.491 279.269,302.491C276.55,302.491 275.833,299.222 275.833,297.187C275.833,294.402 276.934,292.484 278.985,292.484C281.054,292.484 282.304,294.802 282.304,297.654Z" style="fill:rgb(0,68,140);fill-rule:nonzero;"/>
    </g>
    <g transform="matrix(4.16667,0,0,4.16667,-880.181,-421.675)">
        <path d="M287.541,300.59C287.541,302.124 287.441,302.241 286.691,302.374L286.24,302.458C286.107,302.541 286.107,302.941 286.24,303.042C287.108,303.008 287.842,302.991 288.675,302.991C289.476,302.991 290.243,303.008 291.127,303.042C291.244,302.941 291.244,302.541 291.127,302.458L290.677,302.374C289.926,302.241 289.826,302.124 289.826,300.59L289.826,298.538C289.826,298.205 289.86,298.171 290.443,298.171C290.86,298.171 291.127,298.305 291.327,298.755C291.711,299.639 292.095,300.456 292.628,301.34C293.362,302.541 294.33,303.092 295.864,303.092C296.381,303.092 296.915,303.058 297.182,302.941C297.265,302.841 297.265,302.591 297.115,302.508C296.865,302.491 296.431,302.391 295.997,302.041C295.197,301.357 294.513,300.106 293.412,297.871C293.329,297.688 293.329,297.588 293.496,297.504C294.263,297.121 295.264,296.487 295.264,295.002C295.264,293.935 294.763,293.101 293.796,292.534C293.162,292.15 291.945,291.933 290.527,291.933C288.942,291.933 287.641,292 286.39,292.084C286.19,292.167 286.19,292.584 286.357,292.667L286.807,292.734C287.508,292.834 287.541,293.018 287.541,294.685L287.541,300.59ZM289.826,293.551C289.826,292.751 289.86,292.701 290.543,292.701C291.844,292.701 292.728,293.668 292.728,295.169C292.728,296.153 292.412,296.687 292.128,296.97C291.811,297.287 291.461,297.437 290.86,297.437C289.876,297.437 289.826,297.387 289.826,296.804L289.826,293.551Z" style="fill:rgb(0,68,140);fill-rule:nonzero;"/>
    </g>
    <g transform="matrix(4.16667,0,0,4.16667,-880.181,-421.675)">
        <path d="M300.101,300.59C300.101,302.141 300,302.291 299.25,302.374L298.499,302.458C298.366,302.558 298.366,302.941 298.499,303.042C299.667,303.008 300.534,302.991 301.335,302.991C302.085,302.991 302.919,303.008 304.003,303.042C304.12,302.941 304.12,302.558 304.003,302.458L303.336,302.374C302.586,302.274 302.486,302.141 302.486,300.59L302.486,293.234C302.486,292.801 302.536,292.751 302.936,292.751L303.937,292.751C305.188,292.751 305.421,293.535 305.705,294.602C305.788,294.735 306.238,294.702 306.322,294.552C306.288,293.601 306.405,292.25 306.572,291.683C306.539,291.633 306.422,291.567 306.322,291.567C306.222,291.567 306.172,291.583 306.105,291.617C305.955,291.967 305.705,291.983 304.604,291.983L298.399,291.983C297.132,291.983 297.082,291.917 296.998,291.633C296.932,291.583 296.848,291.567 296.765,291.567C296.681,291.567 296.598,291.6 296.531,291.65C296.414,292.3 296.331,293.334 295.981,294.485C296.081,294.702 296.398,294.735 296.598,294.635C297.098,293.418 297.449,292.751 298.666,292.751L299.7,292.751C300.101,292.751 300.101,292.834 300.101,293.234L300.101,300.59Z" style="fill:rgb(0,68,140);fill-rule:nonzero;"/>
    </g>
    <g transform="matrix(4.16667,0,0,4.16667,-880.181,-421.675)">
        <path d="M314.361,299.873C314.361,298.038 313.043,297.071 312.009,296.52L310.908,295.936C310.074,295.503 309.391,294.802 309.391,294.035C309.391,293.201 309.991,292.484 311.092,292.484C312.293,292.484 313.01,293.701 313.293,294.552C313.443,294.719 313.86,294.702 313.944,294.502C313.944,293.384 313.777,292.484 313.644,292.117C313.443,292.084 313.293,292.05 313.077,291.983C312.409,291.783 311.726,291.717 311.175,291.717C308.757,291.717 307.289,293.018 307.306,294.902C307.306,296.553 308.623,297.554 309.824,298.155C310.825,298.655 312.092,299.456 312.092,300.807C312.092,301.641 311.525,302.491 310.291,302.491C308.873,302.491 307.756,300.957 307.422,299.873C307.289,299.689 306.905,299.706 306.789,299.923C306.789,301.057 307.005,302.258 307.322,302.625C307.673,302.825 308.623,303.258 310.158,303.258C312.676,303.258 314.361,301.924 314.361,299.873Z" style="fill:rgb(0,68,140);fill-rule:nonzero;"/>
    </g>
    <g transform="matrix(4.16667,0,0,4.16667,-880.181,-421.675)">
        <path d="M328.571,299.179C328.571,296.937 326.961,295.755 325.697,295.082L324.351,294.369C323.332,293.839 322.496,292.982 322.496,292.045C322.496,291.025 323.23,290.149 324.576,290.149C326.043,290.149 326.92,291.637 327.266,292.677C327.45,292.88 327.96,292.86 328.062,292.615C328.062,291.25 327.858,290.149 327.695,289.7C327.45,289.66 327.266,289.619 327.001,289.537C326.186,289.293 325.35,289.211 324.678,289.211C321.722,289.211 319.928,290.801 319.948,293.105C319.948,295.123 321.559,296.346 323.026,297.08C324.249,297.691 325.799,298.67 325.799,300.321C325.799,301.34 325.106,302.38 323.597,302.38C321.864,302.38 320.499,300.504 320.091,299.179C319.928,298.955 319.459,298.976 319.316,299.241C319.316,300.627 319.581,302.095 319.969,302.543C320.397,302.788 321.559,303.318 323.434,303.318C326.512,303.318 328.571,301.687 328.571,299.179Z" style="fill:rgb(0,68,140);fill-rule:nonzero;"/>
    </g>
    <g transform="matrix(4.16667,0,0,4.16667,-880.181,-421.675)">
        <path d="M333.448,294.419C333.448,292.851 333.548,292.734 334.315,292.601L334.782,292.517C334.916,292.417 334.916,292.034 334.782,291.933C333.882,291.967 333.048,291.983 332.264,291.983C331.463,291.983 330.629,291.967 329.729,291.933C329.595,292.034 329.595,292.417 329.729,292.517L330.196,292.601C330.963,292.734 331.063,292.851 331.063,294.419L331.063,300.556C331.063,302.124 330.963,302.241 330.196,302.374L329.729,302.458C329.595,302.558 329.595,302.941 329.729,303.042C330.629,303.008 331.463,302.991 332.264,302.991C333.048,302.991 333.865,303.008 334.766,303.042C334.899,302.941 334.916,302.558 334.782,302.458L334.315,302.374C333.548,302.241 333.448,302.124 333.448,300.556L333.448,294.419Z" style="fill:rgb(0,68,140);fill-rule:nonzero;"/>
    </g>
    <g transform="matrix(4.16667,0,0,4.16667,-880.181,-421.675)">
        <path d="M335.149,302.491C334.999,302.591 335.049,302.958 335.216,303.042C335.716,303.008 336.416,302.991 336.967,302.991C337.667,302.991 338.418,303.008 339.152,303.042C339.335,302.975 339.352,302.575 339.202,302.458L338.768,302.408C338.418,302.374 338.234,302.291 338.234,302.191C338.234,302.091 338.268,301.974 338.385,301.741C338.935,300.69 339.719,299.422 340.369,298.472C340.62,298.788 341.887,300.74 342.137,301.19C342.554,301.891 342.621,302.041 342.621,302.174C342.621,302.274 342.421,302.358 342.004,302.408L341.554,302.458C341.387,302.541 341.453,302.975 341.604,303.042C342.504,303.008 343.255,302.991 344.406,302.991C345.757,302.991 346.274,303.008 347.007,303.042C347.174,302.925 347.174,302.575 347.058,302.458L346.54,302.391C345.907,302.308 345.49,302.074 344.906,301.19C344.306,300.29 343.488,299.039 342.237,297.104C342.071,296.854 342.004,296.67 342.004,296.587C342.004,296.503 342.171,296.253 342.337,296.02C343.121,294.952 343.855,293.852 344.656,293.034C344.956,292.734 345.256,292.667 345.606,292.617L346.307,292.517C346.424,292.367 346.407,292.017 346.24,291.933C345.707,291.967 345.023,291.983 344.222,291.983C343.438,291.983 342.905,291.967 342.387,291.933C342.204,292.017 342.204,292.4 342.337,292.517L343.005,292.634C343.221,292.667 343.338,292.751 343.338,292.801C343.338,292.884 343.338,293.001 343.155,293.301C342.638,294.185 342.087,295.002 341.47,295.936C340.953,295.186 340.353,294.268 339.902,293.485C339.702,293.134 339.635,292.984 339.635,292.834C339.635,292.717 339.936,292.634 340.203,292.584L340.569,292.517C340.686,292.384 340.686,292.017 340.503,291.933C339.986,291.967 339.319,291.983 337.968,291.983C336.95,291.983 335.899,291.967 335.366,291.933C335.199,292.034 335.199,292.384 335.349,292.517L335.633,292.567C336.383,292.701 336.733,292.917 337.117,293.468C337.901,294.585 338.952,296.237 339.502,297.054C339.719,297.354 339.802,297.571 339.802,297.638C339.802,297.738 339.719,297.938 339.569,298.155C338.852,299.222 337.951,300.523 337.467,301.157C336.917,301.907 336.533,302.308 335.532,302.441L335.149,302.491Z" style="fill:rgb(0,68,140);fill-rule:nonzero;"/>
    </g>
    <g transform="matrix(4.16667,0,0,4.16667,-880.181,-421.675)">
        <path d="M270.329,310.093C266.859,310.093 263.457,311.093 261.088,313.062C258.786,314.963 257.052,317.832 257.052,321.901C257.052,326.039 258.887,328.807 261.289,330.641C263.657,332.409 266.993,333.176 270.262,333.176C272.864,333.176 275.232,332.442 277.034,331.942C277.501,331.175 278.068,329.173 278.301,326.706C278.101,326.305 277.3,326.204 277.034,326.471C276.133,328.74 274.265,331.642 270.229,331.642C266.226,331.642 262.39,328.073 262.39,321.435C262.39,314.796 266.359,311.627 270.062,311.627C273.297,311.627 275.432,313.295 276.333,316.397C276.567,316.698 277.467,316.564 277.601,316.164C277.3,314.229 277.2,311.56 277.2,310.96C276.2,310.893 273.731,310.093 270.329,310.093Z" style="fill:rgb(0,68,140);fill-rule:nonzero;"/>
    </g>
    <g transform="matrix(4.16667,0,0,4.16667,-880.181,-421.675)">
        <path d="M287.274,315.43C287.274,312.328 287.474,312.061 288.976,311.827L289.843,311.694C290.11,311.494 290.11,310.727 289.843,310.526C288.175,310.593 286.507,310.626 284.906,310.626C283.305,310.626 281.637,310.593 279.902,310.526C279.502,310.727 279.502,311.494 279.836,311.694L280.803,311.827C282.304,312.027 282.504,312.328 282.504,315.43L282.504,327.839C282.504,330.941 282.304,331.208 280.803,331.408L279.535,331.575C279.268,331.775 279.335,332.542 279.635,332.743C281.704,332.676 283.371,332.642 284.906,332.642L289.376,332.642C292.111,332.642 295.313,332.676 297.081,332.743C297.548,331.842 298.349,329.073 298.516,327.339C298.282,326.938 297.515,326.805 297.248,327.138C295.28,331.008 294.346,331.108 291.311,331.108C288.875,331.108 288.275,330.841 287.841,330.274C287.408,329.74 287.274,328.673 287.274,327.105L287.274,315.43Z" style="fill:rgb(0,68,140);fill-rule:nonzero;"/>
    </g>
    <g transform="matrix(4.16667,0,0,4.16667,-880.181,-421.675)">
        <path d="M300.65,323.769C300.65,327.406 301.384,329.875 303.119,331.308C304.92,332.776 307.188,333.176 309.724,333.176C312.426,333.176 314.861,332.342 316.328,330.774C318.163,328.74 318.463,325.871 318.463,322.735L318.463,319C318.463,316.297 318.597,313.762 318.964,312.895C319.264,312.194 319.898,311.994 320.765,311.794L321.365,311.661C321.632,311.394 321.566,310.727 321.365,310.526C320.098,310.593 318.864,310.626 317.629,310.626C316.262,310.626 314.961,310.593 313.159,310.526C312.959,310.727 312.893,311.394 313.159,311.661L314.06,311.827C314.961,311.994 315.695,312.194 315.995,312.895C316.362,313.762 316.495,316.297 316.495,319L316.495,323.035C316.495,327.605 315.194,331.342 310.925,331.342C305.854,331.342 305.421,327.039 305.421,323.136L305.421,315.43C305.421,312.328 305.621,312.061 307.122,311.794L307.922,311.661C308.189,311.46 308.189,310.727 307.922,310.526C306.321,310.593 304.687,310.626 303.052,310.626C301.451,310.626 299.783,310.593 298.182,310.526C297.815,310.727 297.848,311.46 298.115,311.661L298.949,311.827C300.45,312.128 300.65,312.328 300.65,315.43L300.65,323.769Z" style="fill:rgb(0,68,140);fill-rule:nonzero;"/>
    </g>
    <g transform="matrix(4.16667,0,0,4.16667,-880.181,-421.675)">
        <path d="M325.502,327.839C325.502,330.841 325.302,331.075 323.801,331.375L322.833,331.575C322.566,331.675 322.566,332.542 322.833,332.743C324.735,332.676 326.369,332.642 328.004,332.642C328.971,332.642 330.239,332.776 331.439,332.776C333.474,332.776 335.976,332.676 338.078,331.942C340.179,331.208 342.014,329.407 341.98,326.338C341.947,323.102 339.712,321.368 337.077,320.802C336.777,320.734 336.61,320.634 336.61,320.534C336.61,320.367 336.943,320.233 337.277,320.167C338.311,319.901 340.679,318.799 340.679,315.997C340.679,314.029 339.812,312.628 338.378,311.761C336.91,310.893 334.775,310.526 331.573,310.526C328.237,310.526 325.802,310.66 323.267,310.827C322.766,310.86 322.833,311.861 323.133,312.027L324.034,312.161C325.435,312.361 325.502,312.695 325.502,316.064L325.502,327.839ZM330.105,313.795C330.105,312.328 330.138,312.061 331.706,312.061C334.008,312.061 335.809,313.495 335.809,316.397C335.809,318.399 334.742,320.233 331.873,320.233C330.138,320.233 330.105,320.167 330.105,319.299L330.105,313.795ZM330.105,323.069C330.105,321.735 330.105,321.701 331.94,321.701C335.142,321.701 336.81,323.737 336.81,326.638C336.81,329.341 335.509,331.241 333.041,331.241C330.439,331.241 330.105,329.607 330.105,327.005L330.105,323.069Z" style="fill:rgb(0,68,140);fill-rule:nonzero;"/>
    </g>
</svg>
