<?xml version="1.0" encoding="UTF-8" standalone="no"?>
<!-- Created with Inkscape (http://www.inkscape.org/) -->

<svg
   width="181.35283mm"
   height="60.35276mm"
   viewBox="0 0 181.35283 60.35276"
   version="1.1"
   id="svg1"
   sodipodi:docname="airfreshner.svg"
   inkscape:version="1.4.3 (0d15f75, 2025-12-25)"
   xmlns:inkscape="http://www.inkscape.org/namespaces/inkscape"
   xmlns:sodipodi="http://sodipodi.sourceforge.net/DTD/sodipodi-0.dtd"
   xmlns="http://www.w3.org/2000/svg"
   xmlns:svg="http://www.w3.org/2000/svg">
  <sodipodi:namedview
     id="namedview1"
     pagecolor="#ffffff"
     bordercolor="#000000"
     borderopacity="0.25"
     inkscape:showpageshadow="2"
     inkscape:pageopacity="0.0"
     inkscape:pagecheckerboard="0"
     inkscape:deskcolor="#d1d1d1"
     inkscape:document-units="mm"
     inkscape:zoom="1.9272629"
     inkscape:cx="342.71401"
     inkscape:cy="88.467431"
     inkscape:window-width="1920"
     inkscape:window-height="1022"
     inkscape:window-x="1920"
     inkscape:window-y="31"
     inkscape:window-maximized="0"
     inkscape:current-layer="layer1" />
  <defs
     id="defs1" />
  <g
     inkscape:label="Layer 1"
     inkscape:groupmode="layer"
     id="layer1"
     transform="translate(-87.841668,-61.118751)">
    <g
       id="g49"
       transform="matrix(0.2831037,0,0,0.2831037,78.24842,23.624364)"
       style="clip-rule:evenodd;fill-rule:evenodd;stroke-miterlimit:2">
      <g
         transform="matrix(0,1.4717405,-1.4717405,0,512.3498,-201.47639)"
         id="g18"
         style="fill:#154941;fill-opacity:1">
        <path
   d="m 299.404,206.067 -6.895,-0.012 c -7.841,-18.476 -28.847,-15.386 -28.847,-15.386 v -76.34 h 12.361 c 16.447,0 16.611,13.215 16.611,19.374 h 6.77"
   style="fill:#154941;fill-opacity:1;stroke:#231f20;stroke-width:1.54px"
   id="path18" />

    </g>
      <g
         transform="matrix(0,1.4717405,-1.4717405,0,512.3498,-201.47639)"
         id="g1">
        <path
   d="m 299.306,206.067 6.897,-0.012 c 7.841,-18.476 28.846,-15.386 28.846,-15.386 v -76.34 H 322.69 c -16.449,0 -16.614,13.215 -16.614,19.374 h -6.77"
   style="fill:#ffffff;fill-rule:nonzero"
   id="path1" />

    </g>
      <g
         transform="matrix(0,1.4717405,-1.4717405,0,512.3498,-201.47639)"
         id="g2">
        <path
   d="m 299.306,206.067 6.897,-0.012 c 7.841,-18.476 28.846,-15.386 28.846,-15.386 v -76.34 H 322.69 c -16.449,0 -16.614,13.215 -16.614,19.374 h -6.77"
   style="fill:none;stroke:#231f20;stroke-width:1.54px"
   id="path2" />

    </g>
      <g
         transform="matrix(0,1.4717405,-1.4717405,0,512.3498,-201.47639)"
         id="g4">
        <path
   d="m 299.372,206.067 -6.898,-0.012 c -7.838,-18.476 -28.843,-15.386 -28.843,-15.386 v -76.34 h 12.358 c 16.449,0 16.613,13.215 16.613,19.374 h 6.77"
   style="fill:none;stroke:#231f20;stroke-width:1.54px"
   id="path4" />

    </g>
      <g
         transform="matrix(0,1.4717405,-1.4717405,0,512.3498,-201.47639)"
         id="g5"
         style="fill:#154941;fill-opacity:1;stroke-width:1.00018;stroke-dasharray:none">
        <path
   d="m 299.393,223.957 h 25.18 c 10.765,0 29.371,-7.59 29.371,-33.38 h -18.871 v 3.465 c 0,0 -0.133,12.061 -10.631,12.061 h -25.049"
   style="fill:#154941;fill-opacity:1;fill-rule:nonzero;stroke-width:1.00018;stroke-dasharray:none"
   id="path5" />

    </g>
      <g
         transform="matrix(0,1.4717405,-1.4717405,0,512.3498,-201.47639)"
         id="g6">
        <path
   d="m 299.393,223.957 h 25.18 c 10.765,0 29.371,-7.59 29.371,-33.38 h -18.871 v 3.465 c 0,0 -0.133,12.061 -10.631,12.061 h -25.049"
   style="fill:none;stroke:#231f20;stroke-width:1.54px"
   id="path6" />

    </g>
      <g
         transform="matrix(0,1.4717405,-1.4717405,0,512.3498,-201.47639)"
         id="g7">
        <path
   d="m 299.393,223.957 h -25.915 c -10.765,0 -28.8,-7.59 -28.8,-33.38 h 18.87 v 3.465 c 0,0 -0.436,12.061 10.065,12.061 h 25.78"
   style="fill:#ffffff;fill-rule:nonzero"
   id="path7" />

    </g>
      <g
         transform="matrix(0,1.4717405,-1.4717405,0,512.3498,-201.47639)"
         id="g8">
        <path
   d="m 299.393,223.957 h -25.915 c -10.765,0 -28.8,-7.59 -28.8,-33.38 h 18.87 v 3.465 c 0,0 -0.436,12.061 10.065,12.061 h 25.78"
   style="fill:none;stroke:#231f20;stroke-width:1.54px"
   id="path8" />

    </g>
      <g
         transform="matrix(0,1.4717405,-1.4717405,0,512.3498,-201.47639)"
         id="g9">
        <path
   d="m 299.542,133.703 v 90.254"
   style="fill:none;stroke:#231f20;stroke-width:1.54px"
   id="path9" />

    </g>
      <g
         transform="matrix(0,1.4717405,-1.4717405,0,512.3498,-201.47639)"
         id="g10">
        <path
   d="m 270.436,120.912 v 68.955"
   style="fill:none;stroke:#ffffff;stroke-width:1.54px;stroke-linecap:round;stroke-linejoin:round"
   id="path10" />

    </g>
      <g
         transform="matrix(0,1.4717405,-1.4717405,0,512.3498,-201.47639)"
         id="g11">
        <path
   d="m 277.962,124.464 v 67.54"
   style="fill:none;stroke:#ffffff;stroke-width:1.54px;stroke-linecap:round;stroke-linejoin:round"
   id="path11" />

    </g>
      <g
         transform="matrix(0,1.4717405,-1.4717405,0,512.3498,-201.47639)"
         id="g12">
        <path
   d="m 285.388,129.396 v 66.392"
   style="fill:none;stroke:#ffffff;stroke-width:1.54px;stroke-linecap:round;stroke-linejoin:round"
   id="path12" />

    </g>
      <g
         transform="matrix(0,1.4717405,-1.4717405,0,512.3498,-201.47639)"
         id="g13">
        <path
   d="M 292.632,134.171 V 205.85"
   style="fill:none;stroke:#ffffff;stroke-width:1.54px;stroke-linecap:round;stroke-linejoin:round"
   id="path13" />

    </g>
      <g
         transform="matrix(0,1.4717405,-1.4717405,0,512.3498,-201.47639)"
         id="g14">
        <path
   d="m 328.275,120.912 v 68.955"
   style="fill:none;stroke:#231f20;stroke-width:1.54px;stroke-linecap:round;stroke-linejoin:round"
   id="path14" />

    </g>
      <g
         transform="matrix(0,1.4717405,-1.4717405,0,512.3498,-201.47639)"
         id="g15">
        <path
   d="m 320.745,124.464 v 67.54"
   style="fill:none;stroke:#231f20;stroke-width:1.54px;stroke-linecap:round;stroke-linejoin:round"
   id="path15" />

    </g>
      <g
         transform="matrix(0,1.4717405,-1.4717405,0,512.3498,-201.47639)"
         id="g16">
        <path
   d="m 313.318,129.396 v 67.006"
   style="fill:none;stroke:#231f20;stroke-width:1.54px;stroke-linecap:round;stroke-linejoin:round"
   id="path16" />

    </g>
      <g
         transform="matrix(0,1.4717405,-1.4717405,0,512.3498,-201.47639)"
         id="g17">
        <path
   d="m 306.074,133.703 v 72.048"
   style="fill:none;stroke:#231f20;stroke-width:1.54px;stroke-linecap:round;stroke-linejoin:round"
   id="path17" />

    </g>
    </g>
    <text
       xml:space="preserve"
       style="font-size:7.27484px;text-align:center;writing-mode:lr-tb;direction:ltr;text-anchor:middle;clip-rule:evenodd;fill:#154941;fill-opacity:1;fill-rule:evenodd;stroke-width:0.89238;stroke-miterlimit:2;stroke-dasharray:none"
       x="91.444321"
       y="-100.41997"
       id="text43"
       transform="rotate(90)"><tspan
         sodipodi:role="line"
         id="tspan43"
         x="91.444321"
         y="-100.41997"
         style="stroke-width:0.89238">Triumph Sports</tspan><tspan
         sodipodi:role="line"
         x="91.444321"
         y="-91.326416"
         id="tspan44"
         style="stroke-width:0.89238">Six Ckub</tspan></text>
    <g
       id="g48"
       transform="matrix(0.29411792,0,0,0.29411792,70.178422,20.856522)"
       style="clip-rule:evenodd;fill-rule:evenodd;stroke-miterlimit:2">
      <g
         id="g47">
        <g
           id="g43"
           transform="matrix(0,-2.9757883,2.9757883,0,386.29988,333.24377)">
          <path
             d="M 27.312,28.138 36.627,2.743 42.562,5.603 38.275,0.35 62.663,2.071 60.305,21.764 Z"
             fill="#154941"
             stroke="#000000"
             stroke-width="0.148"
             id="path1-8" />
          <path
             d="m 27.312,28.138 a 36.538,36.538 0 0 1 -4.263,6.62 c -1.112,1.374 -2.354,2.72 -2.905,4.4 -0.275,0.84 -0.363,1.754 -0.148,2.612 0.216,0.857 0.754,1.65 1.527,2.078 0.56,0.31 1.217,0.422 1.855,0.376 0.638,-0.047 1.259,-0.245 1.836,-0.52 1.155,-0.552 2.14,-1.399 3.22,-2.085 2.223,-1.41 4.81,-2.113 7.248,-3.11 a 31.405,31.405 0 0 0 5.161,-2.694"
             fill="none"
             stroke="#154941"
             stroke-width="0.558"
             id="path2-6" />
          <path
             d="m 23.11,30.535 0.7,3.04 3.433,1.038 -3.32,3.18 -0.874,-3.036 -3.422,-1.163 z m 3.391,8.607 2.154,1.841 3.593,0.483 -1.364,1.85 -2.45,-1.697 -3.437,-0.605 z m 7.993,-3.451 1.688,2.265 3.079,0.9 -2.01,1.314 -1.57,-1.66 -3.235,-1.276 z m 5.179,-1.953 1.17,2.077 0.75,2.14 1.886,0.22 -1.448,-1.747 0.086,-2.068 z"
             fill="#154941"
             id="path3" />
          <path
             d="M 27.312,28.138 A 95.288,95.288 0 0 1 47.397,10.286 95.196,95.196 0 0 1 62.663,2.071"
             fill="none"
             stroke="#000000"
             stroke-width="0.148"
             id="path4-5" />
          <path
             d="m 36.627,2.743 a 34.63,34.63 0 0 0 7.143,10.044 34.75,34.75 0 0 0 16.535,8.977"
             fill="none"
             stroke="#000000"
             stroke-width="0.148"
             id="path5-7" />
          <path
             d="M 43.743,12.813 A 25.943,25.943 0 0 1 31.266,9.488 C 29.913,8.726 28.573,7.821 27.033,7.623 26.263,7.525 25.453,7.618 24.769,7.984 a 2.81,2.81 0 0 0 -0.89,0.74 c -0.24,0.304 -0.41,0.666 -0.479,1.05 -0.093,0.515 0,1.054 0.204,1.54 0.203,0.483 0.513,0.916 0.858,1.311 0.69,0.792 1.534,1.455 2.112,2.332 0.596,0.901 0.877,1.993 0.868,3.074 -0.008,1.08 -0.298,2.15 -0.766,3.123 -0.936,1.947 -2.543,3.484 -4.201,4.87 A 52.515,52.515 0 0 1 0.299,36.944"
             fill="none"
             stroke="#154941"
             stroke-width="0.315"
             id="path6-6" />
        </g>
      </g>
      <text
         xml:space="preserve"
         style="font-size:22.8714px;text-align:center;writing-mode:lr-tb;direction:ltr;text-anchor:middle;clip-rule:evenodd;fill:#154941;fill-opacity:1;fill-rule:evenodd;stroke-width:2.80556;stroke-miterlimit:2;stroke-dasharray:none"
         x="-302.00278"
         y="419.47772"
         id="text43-4"
         transform="rotate(-90)"><tspan
           sodipodi:role="line"
           id="tspan45"
           x="-302.00278"
           y="419.47772">IOW</tspan><tspan
           sodipodi:role="line"
           id="tspan46"
           x="-302.00278"
           y="448.06699">2026</tspan></text>
    </g>
    <text
       xml:space="preserve"
       style="font-style:normal;font-variant:normal;font-weight:normal;font-stretch:normal;font-size:4.42471px;font-family:sans-serif;-inkscape-font-specification:'sans-serif, Normal';font-variant-ligatures:normal;font-variant-caps:normal;font-variant-numeric:normal;font-variant-east-asian:normal;text-align:center;writing-mode:lr-tb;direction:ltr;text-anchor:middle;clip-rule:evenodd;fill:#154941;fill-opacity:1;fill-rule:evenodd;stroke-width:0.542764;stroke-miterlimit:2;stroke-dasharray:none"
       x="-91.326462"
       y="261.56177"
       id="text43-4-5"
       transform="rotate(-90)"><tspan
         sodipodi:role="line"
         id="tspan47"
         x="-91.326462"
         y="261.56177"
         style="stroke-width:0.542764">IOW.triumphsportsix.club</tspan></text>
    <g
       id="g42"
       transform="matrix(0.26458333,0,0,0.26458333,73.518079,18.087164)"
       style="clip-rule:evenodd;fill-rule:evenodd;stroke-miterlimit:2">
      <path
         id="path39-2"
         d="m 0,0 c -23.483,0 -42.52,-19.037 -42.52,-42.52 0,-23.483 19.037,-42.519 42.52,-42.519 23.483,0 42.52,19.036 42.52,42.519 C 42.52,-19.037 23.483,0 0,0 Z"
         style="fill:none;stroke:#231f20;stroke-width:1;stroke-linecap:butt;stroke-linejoin:miter;stroke-miterlimit:10;stroke-dasharray:none;stroke-opacity:1"
         transform="matrix(1.3333333,0,0,-1.3333333,627.40147,219.9984)" />
      <path
         id="path40-2"
         d="M 0,0 C 7.827,0 14.173,6.346 14.173,14.173"
         style="fill:none;stroke:#231f20;stroke-width:1;stroke-linecap:butt;stroke-linejoin:miter;stroke-miterlimit:10;stroke-dasharray:none;stroke-opacity:1"
         transform="matrix(1.3333333,0,0,-1.3333333,720.0004,390.07733)" />
      <path
         id="path41-7"
         d="M 0,0 C 0,7.827 -6.346,14.173 -14.173,14.173"
         style="fill:none;stroke:#231f20;stroke-width:1;stroke-linecap:butt;stroke-linejoin:miter;stroke-miterlimit:10;stroke-dasharray:none;stroke-opacity:1"
         transform="matrix(1.3333333,0,0,-1.3333333,738.89747,182.20307)" />
      <path
         id="path42"
         d="M 0,0 C -7.828,0 -14.174,-6.346 -14.174,-14.173"
         style="fill:none;stroke:#231f20;stroke-width:1;stroke-linecap:butt;stroke-linejoin:miter;stroke-miterlimit:10;stroke-dasharray:none;stroke-opacity:1"
         transform="matrix(1.3333333,0,0,-1.3333333,417.6384,163.30587)" />
      <path
         id="path43"
         d="M 0,0 C 0,-7.828 6.346,-14.173 14.174,-14.173"
         style="fill:none;stroke:#231f20;stroke-width:1;stroke-linecap:butt;stroke-linejoin:miter;stroke-miterlimit:10;stroke-dasharray:none;stroke-opacity:1"
         transform="matrix(1.3333333,0,0,-1.3333333,398.74,371.1796)" />
      <path
         id="path44"
         d="M 0,0 C -10.815,-14.219 -10.815,-33.906 0,-48.125"
         style="fill:none;stroke:#231f20;stroke-width:1;stroke-linecap:butt;stroke-linejoin:miter;stroke-miterlimit:10;stroke-dasharray:none;stroke-opacity:1"
         transform="matrix(1.3333333,0,0,-1.3333333,737.35587,244.608)" />
      <path
         id="path45"
         d="M 0,0 C 0.75,0.986 1.156,2.192 1.156,3.432"
         style="fill:none;stroke:#231f20;stroke-width:1;stroke-linecap:butt;stroke-linejoin:miter;stroke-miterlimit:10;stroke-dasharray:none;stroke-opacity:1"
         transform="matrix(1.3333333,0,0,-1.3333333,737.35587,244.608)" />
      <path
         id="path46"
         d="M 0,0 C 0,1.24 -0.406,2.445 -1.156,3.432"
         style="fill:none;stroke:#231f20;stroke-width:1;stroke-linecap:butt;stroke-linejoin:miter;stroke-miterlimit:10;stroke-dasharray:none;stroke-opacity:1"
         transform="matrix(1.3333333,0,0,-1.3333333,738.89747,313.35013)" />
      <path
         id="path47"
         d="M 0,0 V 43.372"
         style="fill:none;stroke:#231f20;stroke-width:1;stroke-linecap:butt;stroke-linejoin:miter;stroke-miterlimit:10;stroke-dasharray:none;stroke-opacity:1"
         transform="matrix(1.3333333,0,0,-1.3333333,738.89747,371.1796)" />
      <path
         id="path48"
         d="M 0,0 H -226.772"
         style="fill:none;stroke:#231f20;stroke-width:1;stroke-linecap:butt;stroke-linejoin:miter;stroke-miterlimit:10;stroke-dasharray:none;stroke-opacity:1"
         transform="matrix(1.3333333,0,0,-1.3333333,720.0004,390.07733)" />
      <path
         id="path49"
         d="M 0,0 H -226.772"
         style="fill:none;stroke:#231f20;stroke-width:1;stroke-linecap:butt;stroke-linejoin:miter;stroke-miterlimit:10;stroke-dasharray:none;stroke-opacity:1"
         transform="matrix(1.3333333,0,0,-1.3333333,720.0004,163.30587)" />
      <path
         id="path50"
         d="M 0,0 H 2.835"
         style="fill:none;stroke:#231f20;stroke-width:1;stroke-linecap:butt;stroke-linejoin:miter;stroke-miterlimit:10;stroke-dasharray:none;stroke-opacity:1"
         transform="matrix(1.3333333,0,0,-1.3333333,394.96,371.1796)" />
      <path
         id="path51"
         d="M 0,0 H 2.835"
         style="fill:none;stroke:#231f20;stroke-width:1;stroke-linecap:butt;stroke-linejoin:miter;stroke-miterlimit:10;stroke-dasharray:none;stroke-opacity:1"
         transform="matrix(1.3333333,0,0,-1.3333333,394.96,182.20307)" />
      <path
         id="path52"
         d="M 0,0 V 43.372"
         style="fill:none;stroke:#231f20;stroke-width:1;stroke-linecap:butt;stroke-linejoin:miter;stroke-miterlimit:10;stroke-dasharray:none;stroke-opacity:1"
         transform="matrix(1.3333333,0,0,-1.3333333,738.89747,240.0324)" />
      <path
         id="path53"
         d="m 0,0 c -2.739,0 -4.96,-2.222 -4.96,-4.961 0,-2.74 2.221,-4.96 4.96,-4.96 2.74,0 4.961,2.22 4.961,4.96 C 4.961,-2.222 2.74,0 0,0 Z"
         style="fill:none;stroke:#231f20;stroke-width:1;stroke-linecap:butt;stroke-linejoin:miter;stroke-miterlimit:10;stroke-dasharray:none;stroke-opacity:1"
         transform="matrix(1.3333333,0,0,-1.3333333,421.41707,270.07667)" />
      <path
         id="path54"
         d="M 0,0 C 7.827,0 14.172,6.346 14.172,14.173"
         style="fill:none;stroke:#231f20;stroke-width:1;stroke-linecap:butt;stroke-linejoin:miter;stroke-miterlimit:10;stroke-dasharray:none;stroke-opacity:1"
         transform="matrix(1.3333333,0,0,-1.3333333,376.06413,390.07733)" />
      <path
         id="path55"
         d="M 0,0 C 0,7.827 -6.345,14.173 -14.172,14.173"
         style="fill:none;stroke:#231f20;stroke-width:1;stroke-linecap:butt;stroke-linejoin:miter;stroke-miterlimit:10;stroke-dasharray:none;stroke-opacity:1"
         transform="matrix(1.3333333,0,0,-1.3333333,394.96,182.20307)" />
      <path
         id="path56"
         d="M 0,0 C -7.828,0 -14.173,-6.346 -14.173,-14.173"
         style="fill:none;stroke:#231f20;stroke-width:1;stroke-linecap:butt;stroke-linejoin:miter;stroke-miterlimit:10;stroke-dasharray:none;stroke-opacity:1"
         transform="matrix(1.3333333,0,0,-1.3333333,73.700933,163.30587)" />
      <path
         id="path57"
         d="M 0,0 C 0,-7.828 6.346,-14.173 14.173,-14.173"
         style="fill:none;stroke:#231f20;stroke-width:1;stroke-linecap:butt;stroke-linejoin:miter;stroke-miterlimit:10;stroke-dasharray:none;stroke-opacity:1"
         transform="matrix(1.3333333,0,0,-1.3333333,54.803067,371.1796)" />
      <path
         id="path58"
         d="M 0,0 C 16.747,-15.188 42.286,-15.188 59.033,0"
         style="fill:none;stroke:#231f20;stroke-width:1;stroke-linecap:butt;stroke-linejoin:miter;stroke-miterlimit:10;stroke-dasharray:none;stroke-opacity:1"
         transform="matrix(1.3333333,0,0,-1.3333333,126.9444,320.08587)" />
      <path
         id="path59"
         d="M 0,0 C -16.747,15.189 -42.286,15.189 -59.033,0"
         style="fill:none;stroke:#231f20;stroke-width:1;stroke-linecap:butt;stroke-linejoin:miter;stroke-miterlimit:10;stroke-dasharray:none;stroke-opacity:1"
         transform="matrix(1.3333333,0,0,-1.3333333,205.65467,233.2968)" />
      <path
         id="path60"
         d="m 0,0 c -2.319,-2.103 -2.495,-5.688 -0.391,-8.008 1.075,-1.185 2.6,-1.861 4.2,-1.861"
         style="fill:none;stroke:#231f20;stroke-width:1;stroke-linecap:butt;stroke-linejoin:miter;stroke-miterlimit:10;stroke-dasharray:none;stroke-opacity:1"
         transform="matrix(1.3333333,0,0,-1.3333333,126.9444,233.2968)" />
      <path
         id="path61"
         d="m 0,0 c 3.131,0 5.669,2.539 5.669,5.67 0,1.6 -0.675,3.125 -1.86,4.199"
         style="fill:none;stroke:#231f20;stroke-width:1;stroke-linecap:butt;stroke-linejoin:miter;stroke-miterlimit:10;stroke-dasharray:none;stroke-opacity:1"
         transform="matrix(1.3333333,0,0,-1.3333333,200.57653,246.4556)" />
      <path
         id="path62"
         d="m 0,0 c 2.319,2.104 2.495,5.689 0.391,8.008 -1.075,1.185 -2.6,1.861 -4.2,1.861"
         style="fill:none;stroke:#231f20;stroke-width:1;stroke-linecap:butt;stroke-linejoin:miter;stroke-miterlimit:10;stroke-dasharray:none;stroke-opacity:1"
         transform="matrix(1.3333333,0,0,-1.3333333,205.65467,320.08587)" />
      <path
         id="path63"
         d="m 0,0 c -3.131,0 -5.67,-2.538 -5.67,-5.669 0,-1.6 0.676,-3.125 1.861,-4.2"
         style="fill:none;stroke:#231f20;stroke-width:1;stroke-linecap:butt;stroke-linejoin:miter;stroke-miterlimit:10;stroke-dasharray:none;stroke-opacity:1"
         transform="matrix(1.3333333,0,0,-1.3333333,132.02253,306.9276)" />
      <path
         id="path64"
         d="M 0,0 H -226.772"
         style="fill:none;stroke:#231f20;stroke-width:1;stroke-linecap:butt;stroke-linejoin:miter;stroke-miterlimit:10;stroke-dasharray:none;stroke-opacity:1"
         transform="matrix(1.3333333,0,0,-1.3333333,376.06413,390.07733)" />
      <path
         id="path65"
         d="M 0,0 V 141.732"
         style="fill:none;stroke:#231f20;stroke-width:1;stroke-linecap:butt;stroke-linejoin:miter;stroke-miterlimit:10;stroke-dasharray:none;stroke-opacity:1"
         transform="matrix(1.3333333,0,0,-1.3333333,54.803067,371.1796)" />
      <path
         id="path66"
         d="M 0,0 H -226.772"
         style="fill:none;stroke:#231f20;stroke-width:1;stroke-linecap:butt;stroke-linejoin:miter;stroke-miterlimit:10;stroke-dasharray:none;stroke-opacity:1"
         transform="matrix(1.3333333,0,0,-1.3333333,376.06413,163.30587)" />
      <path
         id="path67"
         d="M 0,0 H 51.415"
         style="fill:none;stroke:#231f20;stroke-width:1;stroke-linecap:butt;stroke-linejoin:miter;stroke-miterlimit:10;stroke-dasharray:none;stroke-opacity:1"
         transform="matrix(1.3333333,0,0,-1.3333333,132.02253,306.9276)" />
      <path
         id="path68"
         d="M 0,0 H 51.415"
         style="fill:none;stroke:#231f20;stroke-width:1;stroke-linecap:butt;stroke-linejoin:miter;stroke-miterlimit:10;stroke-dasharray:none;stroke-opacity:1"
         transform="matrix(1.3333333,0,0,-1.3333333,132.02253,246.4556)" />
      <path
         id="path69"
         d="m 0,0 c -2.739,0 -4.96,-2.222 -4.96,-4.961 0,-2.74 2.221,-4.96 4.96,-4.96 2.74,0 4.961,2.22 4.961,4.96 C 4.961,-2.222 2.74,0 0,0 Z"
         style="fill:none;stroke:#231f20;stroke-width:1;stroke-linecap:butt;stroke-linejoin:miter;stroke-miterlimit:10;stroke-dasharray:none;stroke-opacity:1"
         transform="matrix(1.3333333,0,0,-1.3333333,372.28293,270.07667)" />
    </g>
  </g>
</svg>
